HIERARCHY
ROOT root
{
	OFFSET 0.000000 0.000000 0.000000
	CHANNELS 6 Xposition Yposition Zposition Zrotation Yrotation Xrotation
	JOINT lhip
	{
		OFFSET 0.058581 -0.082280 -0.017664
		CHANNELS 3 Zrotation Yrotation Xrotation
		JOINT lknee
		{
			OFFSET 0.043451 -0.386469 0.008037
			CHANNELS 3 Zrotation Yrotation Xrotation
			JOINT lankle
			{
				OFFSET -0.014790 -0.426874 -0.037428
				CHANNELS 3 Zrotation Yrotation Xrotation
				JOINT ltoe
				{
					OFFSET 0.041054 -0.060286 0.122042
					CHANNELS 3 Zrotation Yrotation Xrotation
					End Site
					{
						OFFSET 0.000000 0.000000 0.000000
					}
				}
			}
		}
	}
	JOINT rhip
	{
		OFFSET -0.060310 -0.090513 -0.013543
		CHANNELS 3 Zrotation Yrotation Xrotation
		JOINT rknee
		{
			OFFSET -0.043257 -0.383688 -0.004843
			CHANNELS 3 Zrotation Yrotation Xrotation
			JOINT rankle
			{
				OFFSET 0.019056 -0.420046 -0.034562
				CHANNELS 3 Zrotation Yrotation Xrotation
				JOINT rtoe
				{
					OFFSET -0.034840 -0.062106 0.130323
					CHANNELS 3 Zrotation Yrotation Xrotation
					End Site
					{
						OFFSET 0.000000 0.000000 0.000000
					}
				}
			}
		}
	}
	JOINT lowerback
	{
		OFFSET 0.004439 0.124404 -0.038385
		CHANNELS 3 Zrotation Yrotation Xrotation
		JOINT upperback
		{
			OFFSET 0.004488 0.137956 0.026820
			CHANNELS 3 Zrotation Yrotation Xrotation
			JOINT chest
			{
				OFFSET -0.002265 0.056032 0.002855
				CHANNELS 3 Zrotation Yrotation Xrotation
				JOINT lowerneck
				{
					OFFSET -0.013390 0.211636 -0.033468
					CHANNELS 3 Zrotation Yrotation Xrotation
					JOINT upperneck
					{
						OFFSET 0.010113 0.088937 0.050410
						CHANNELS 3 Zrotation Yrotation Xrotation
						End Site
						{
							OFFSET 0.000000 0.000000 0.000000
						}
					}
				}
				JOINT lclavicle
				{
					OFFSET 0.071702 0.114000 -0.018898
					CHANNELS 3 Zrotation Yrotation Xrotation
					JOINT lshoulder
					{
						OFFSET 0.122921 0.045205 -0.019046
						CHANNELS 3 Zrotation Yrotation Xrotation
						JOINT lelbow
						{
							OFFSET 0.255332 -0.015649 -0.022946
							CHANNELS 3 Zrotation Yrotation Xrotation
							JOINT lwrist
							{
								OFFSET 0.265709 0.012698 -0.007375
								CHANNELS 3 Zrotation Yrotation Xrotation
								End Site
								{
									OFFSET 0.000000 0.000000 0.000000
								}
							}
						}
					}
				}
				JOINT rclavicle
				{
					OFFSET -0.082954 0.112472 -0.023707
					CHANNELS 3 Zrotation Yrotation Xrotation
					JOINT rshoulder
					{
						OFFSET -0.113228 0.046853 -0.008472
						CHANNELS 3 Zrotation Yrotation Xrotation
						JOINT relbow
						{
							OFFSET -0.260127 -0.014369 -0.031269
							CHANNELS 3 Zrotation Yrotation Xrotation
							JOINT rwrist
							{
								OFFSET -0.269108 0.006794 -0.006027
								CHANNELS 3 Zrotation Yrotation Xrotation
								End Site
								{
									OFFSET 0.000000 0.000000 0.000000
								}
							}
						}
					}
				}
			}
		}
	}
}
MOTION
Frames: 13
Frame Time: 0.033333
0.535831 0.230119 0.998847 86.304013 3.634424 96.698672 5.871942 5.373704 -3.679955 3.974512 -0.507045 -8.188209 -1.834730 11.157028 -2.366259 0.000000 -0.000000 0.000000 -1.260724 -2.158529 -8.688331 -1.185040 1.330279 0.551816 6.305807 -6.970124 -1.615111 0.000000 -0.000000 0.000000 -0.272274 0.801558 0.024176 3.936834 -2.597882 -1.409899 0.179048 2.059905 -8.099723 -0.714687 -8.187290 4.689583 4.675922 -9.327201 -0.405077 -22.088875 1.974868 -4.942896 -60.727912 -3.936788 27.818806 4.607041 -15.451628 13.839709 -11.101563 -6.258843 15.597332 23.290958 1.994735 -2.537462 52.690090 4.095822 19.505858 -2.504130 13.011339 7.045957 8.355208 2.885875 6.212229 
0.535526 0.230188 0.998786 86.299674 3.642608 96.643659 5.884347 5.356781 -3.632101 3.965113 -0.553506 -8.233384 -1.859252 11.196705 -2.267256 0.000000 -0.000000 0.000000 -1.257426 -2.271877 -8.676093 -1.154496 1.373935 0.554645 6.409841 -6.975128 -1.586539 0.000000 -0.000000 0.000000 -0.149053 0.787954 0.117907 3.877772 -2.602950 -1.718643 0.100361 1.811832 -7.597516 -0.642797 -8.299270 4.647096 4.715752 -9.150879 -0.496680 -22.328097 2.235182 -4.981887 -60.362735 -3.989996 27.395731 4.192928 -15.296421 13.828645 -10.338510 -7.229629 14.796542 23.579874 2.106422 -2.604351 52.316104 4.511936 19.261575 -2.251363 12.583914 6.970497 7.676965 3.049105 6.614264 
0.535584 0.230229 0.998657 86.289817 3.654838 96.589032 5.917793 5.360349 -3.533006 3.943814 -0.571078 -8.328244 -1.939522 11.235021 -2.235177 0.000000 -0.000000 0.000000 -1.229440 -2.212639 -8.568260 -1.200052 1.335443 0.391258 6.201806 -6.892223 -1.702293 0.000000 -0.000000 0.000000 -0.099664 0.738131 0.001335 3.858806 -2.579254 -1.597581 0.040303 1.648261 -7.377292 -0.588234 -8.387339 4.763573 4.770878 -9.010141 -0.678489 -22.643045 2.356300 -4.940941 -59.987171 -4.142938 27.025618 3.846714 -14.861324 13.381960 -9.608621 -8.312701 14.026127 23.868641 2.702532 -2.471357 51.945117 4.729961 19.342934 -2.241684 11.869056 6.471087 7.037462 3.445480 6.419360 
0.536328 0.229947 0.998194 86.465869 3.689622 96.877357 5.986199 5.278037 -3.809100 3.891659 -0.716760 -8.450508 -2.066882 11.284725 -2.263520 0.000000 -0.000000 0.000000 -1.026827 -2.113221 -8.608764 -1.416260 1.361079 -0.176858 5.204576 -6.735813 -2.189429 0.000000 -0.000000 0.000000 -0.108508 0.518287 -0.665457 3.808934 -2.646912 -1.138805 0.047576 1.746114 -7.739358 -0.613338 -8.467467 5.277195 4.786932 -8.958059 -0.478318 -22.822921 2.238300 -4.641200 -59.808260 -4.117943 26.951293 3.646086 -14.107916 12.677384 -8.607299 -9.337510 13.120310 23.706756 3.533579 -2.022903 51.772624 4.744955 19.642482 -2.069675 10.934826 5.541254 6.282157 4.161581 5.468925 
0.536369 0.229958 0.998002 86.448377 3.688640 96.861493 5.985482 5.286022 -3.773915 3.889751 -0.731316 -8.486348 -2.049729 11.269235 -2.267636 0.000000 -0.000000 0.000000 -1.020085 -2.131202 -8.597061 -1.422402 1.381782 -0.195326 5.183800 -6.714400 -2.193345 0.000000 -0.000000 0.000000 -0.083815 0.527376 -0.708266 3.801920 -2.675998 -1.073028 0.013508 1.746562 -7.758078 -0.602584 -8.403285 5.327533 4.756787 -8.904771 -0.462468 -22.860557 2.244860 -4.636581 -59.787443 -4.086971 26.940927 3.753132 -14.093528 12.585284 -8.532962 -9.152781 13.166564 23.739562 3.524078 -2.025262 51.652255 4.836705 19.576438 -2.105637 10.940433 5.403269 6.290870 4.131393 5.501511 
0.536468 0.230014 0.997723 86.423429 3.669242 96.797227 5.954861 5.306830 -3.699255 3.901503 -0.772631 -8.489502 -2.018290 11.253448 -2.342780 0.000000 -0.000000 0.000000 -1.033572 -2.140187 -8.538108 -1.442850 1.423079 -0.195657 5.210325 -6.702768 -2.217560 0.000000 -0.000000 0.000000 -0.063722 0.503498 -0.807507 3.816789 -2.760375 -0.916950 -0.020145 1.769901 -7.716371 -0.586431 -8.279812 5.465632 4.672003 -8.842533 -0.620163 -22.922602 2.260732 -4.713525 -59.787014 -4.010001 26.882052 4.001810 -14.288685 12.368966 -8.653499 -8.610306 13.365120 23.758300 3.552339 -2.076636 51.435247 4.996892 19.427835 -2.212409 11.040918 5.161687 6.458573 3.957797 5.698195 
0.536485 0.230039 0.997560 86.406469 3.654447 96.698069 5.938055 5.301532 -3.592152 3.897567 -0.734505 -8.483788 -1.997188 11.214927 -2.364585 0.000000 -0.000000 0.000000 -1.067030 -2.122050 -8.426530 -1.429678 1.385976 -0.210061 5.227281 -6.622967 -2.213271 0.000000 -0.000000 0.000000 -0.036902 0.489482 -0.865042 3.834240 -2.819619 -0.769146 -0.028240 1.722489 -7.665423 -0.608727 -8.119551 5.631217 4.662559 -8.802630 -0.833686 -22.987260 2.310767 -4.721067 -59.774580 -3.954444 26.655352 4.154521 -14.442454 12.065988 -8.945755 -8.569599 13.267896 23.778436 3.665604 -2.046924 51.211648 5.178278 19.278909 -2.342889 11.120599 4.933616 6.611907 3.994652 5.790761 
0.536464 0.229971 0.997352 86.367711 3.645293 96.519657 5.959320 5.316225 -3.404265 3.867100 -0.683220 -8.467254 -2.007530 11.152350 -2.369639 0.000000 -0.000000 0.000000 -1.083760 -2.116378 -8.284548 -1.421202 1.298811 -0.125935 5.233998 -6.534388 -2.300367 0.000000 -0.000000 0.000000 -0.065968 0.487125 -0.917299 3.829413 -2.832714 -0.470898 0.039739 1.681545 -7.591547 -0.613747 -7.961650 5.667147 4.666293 -8.793878 -1.057609 -23.046810 2.058740 -4.408596 -59.804497 -4.026923 26.168959 4.517559 -14.672404 11.364410 -9.075475 -8.568329 12.831934 23.845210 3.997411 -1.806909 51.056990 5.370566 18.914072 -2.797413 11.158904 4.304364 6.673224 4.009252 5.530285 
0.536402 0.229812 0.997151 86.308111 3.658323 96.309497 6.002325 5.367860 -3.213319 3.843345 -0.597836 -8.396072 -2.020100 11.072632 -2.413134 0.000000 -0.000000 0.000000 -1.086127 -2.091940 -8.159981 -1.382059 1.212887 0.051468 5.202546 -6.371445 -2.428293 0.000000 -0.000000 0.000000 -0.121100 0.489403 -0.968068 3.832498 -2.831128 -0.068013 0.151784 1.647424 -7.539338 -0.536027 -7.836217 5.642390 4.653036 -8.736870 -1.246784 -23.131494 1.770905 -4.047481 -59.890810 -4.119929 25.574330 5.157420 -14.844450 10.219362 -8.613359 -8.691433 12.215242 23.923446 4.439101 -1.482024 50.892362 5.619715 18.514784 -3.230095 11.098537 3.448859 6.427090 4.072583 5.127242 
0.536460 0.229685 0.996870 86.326963 3.682999 96.065604 6.079089 5.325001 -2.974635 3.818104 -0.567618 -8.343985 -1.983233 10.995385 -2.439831 0.000000 -0.000000 0.000000 -1.069766 -2.068115 -7.957773 -1.368499 1.077159 0.183832 5.136774 -6.309241 -2.526092 0.000000 -0.000000 0.000000 -0.211486 0.474240 -0.905060 3.861083 -2.831132 0.115103 0.363200 1.551980 -7.337115 -0.466091 -7.610124 5.852028 4.844210 -8.669299 -1.576157 -23.156901 1.570351 -3.725506 -60.316799 -4.372811 24.844642 6.126901 -14.536993 9.115859 -8.347741 -8.890187 10.869302 23.933396 4.844344 -1.184832 50.773028 5.905049 18.255579 -3.659286 10.943822 2.963836 6.189002 4.156248 4.628111 
0.536300 0.229491 0.996569 86.391753 3.733473 95.895071 6.189617 5.287788 -2.849549 3.785501 -0.559677 -8.270731 -2.005348 10.922510 -2.468140 0.000000 -0.000000 0.000000 -0.991107 -2.073713 -7.813545 -1.394360 1.029373 0.243051 5.102440 -6.240679 -2.570704 0.000000 -0.000000 0.000000 -0.259988 0.451301 -0.814885 3.915073 -2.833600 0.252687 0.495810 1.512261 -7.212328 -0.402886 -7.642358 5.875593 4.867834 -8.713218 -1.685828 -23.196016 1.570102 -3.600387 -60.671505 -4.612006 24.227981 6.929572 -14.324091 7.878605 -7.610137 -8.797096 9.814961 23.928836 5.018402 -1.131469 50.728832 6.196412 18.084259 -3.916029 10.700616 2.653620 5.906203 4.085522 4.546977 
0.536058 0.229250 0.996437 86.514615 3.773075 95.804514 6.279500 5.264860 -2.820236 3.770750 -0.601467 -8.209359 -2.021651 10.829795 -2.460741 0.000000 -0.000000 0.000000 -0.921607 -2.098345 -7.703545 -1.411194 0.943903 0.220962 5.070123 -6.268294 -2.558890 0.000000 -0.000000 0.000000 -0.222662 0.474168 -0.726531 3.913566 -2.837460 0.219224 0.535520 1.449692 -7.103252 -0.379593 -7.739322 6.016884 4.783957 -8.825121 -1.705921 -23.239299 1.666451 -3.634955 -60.827385 -4.831013 23.830992 7.525935 -14.117134 6.986547 -7.472999 -8.490085 9.427019 23.948057 5.020027 -1.094208 50.780894 6.374907 17.974618 -4.151460 10.604923 2.363626 5.925571 3.955913 4.542176 
0.535887 0.229070 0.996481 86.647355 3.734916 95.830663 6.256556 5.299490 -2.846894 3.756404 -0.677850 -8.282322 -2.033171 10.726723 -2.444964 0.000000 -0.000000 0.000000 -0.959467 -2.175296 -7.683055 -1.394691 0.850406 0.168288 5.068794 -6.158012 -2.528004 0.000000 -0.000000 0.000000 -0.210136 0.484366 -0.785312 3.870883 -2.872496 0.280208 0.485282 1.478294 -7.202567 -0.397712 -7.832732 6.207130 4.742621 -8.922534 -1.572554 -23.299999 1.743447 -3.636090 -60.620297 -4.771949 23.670393 7.683132 -14.113913 6.148419 -7.079415 -8.667526 9.703250 23.954944 4.962047 -1.047467 50.905745 6.408575 17.737502 -4.267454 10.583215 1.739131 5.816029 3.952897 4.332105 
